<svg xmlns="http://www.w3.org/2000/svg" viewBox="0 0 134.24 142.48"><title>Autodesk 3ds Max logo - Brandlogos.net</title><path d="M466.54,440.77v.1a40.54,40.54,0,0,0-3.68,2.14c-6,3.58-12,7.25-18,10.8q0,50.1,0,100.21c3.95-2.33,7.86-4.72,11.79-7.08,0,9.74,0,19.49,0,29.23a7.29,7.29,0,0,0,7.32,7.07q57.55,0,115.1,0c0-40.06,0-80.13,0-120.19h-9.86c0-5.16,0-10.31,0-15.46a7.22,7.22,0,0,0-7.09-6.79Q514.33,440.74,466.54,440.77Z" transform="translate(-444.88 -440.76)" style="fill:#fff"/><path d="M503,465.84c5.23-3.62,11.94-4.41,18.13-3.64,5.29.7,10.83,3,13.66,7.81,1.74,2.8,1.63,6.21,1.51,9.38a9.22,9.22,0,0,1-3.26,6.05,15.93,15.93,0,0,1-6.44,3.36c4.35.91,8.83,3.19,10.86,7.34,1.38,2.67.92,5.75,1,8.64,0,4.28-2.49,8.21-5.85,10.69-4.44,3.28-10.11,4.54-15.56,4.47-4.95,0-10.09-.91-14.28-3.68a16.33,16.33,0,0,1-7.21-12.65c4.29,0,8.57,0,12.86,0a7.07,7.07,0,0,0,4.09,5.72,11.43,11.43,0,0,0,8,.18,6.21,6.21,0,0,0,4.09-5.14c.32-2.81.4-6.3-2.12-8.19-3.42-2.6-7.94-2-12-2.07-.21-3.08-.09-6.16-.11-9.24,3.25-.19,6.78.49,9.75-1.22a5,5,0,0,0,2.57-4.56c0-1.81.18-3.83-1-5.36-1.33-1.74-3.67-2.21-5.74-2.13a6.7,6.7,0,0,0-5.74,2.79A9.17,9.17,0,0,0,509,478c-4.31,0-8.62,0-12.93,0A15.76,15.76,0,0,1,503,465.84Z" transform="translate(-444.88 -440.76)" style="fill:#fff"/><path d="M486.74,550.79c2.19.07,4.44-.15,6.6.1,1.46,5.57,2.8,11.17,4.24,16.74,1.53-5.6,3-11.23,4.47-16.84,2.13,0,4.26,0,6.39,0q0,10.51,0,21h-5c0-4.48.08-9-.07-13.45-1.1,4.5-2.29,9-3.48,13.47q-2.44,0-4.88,0c-1.32-4.63-2.43-9.32-3.74-14-.06,4.65,0,9.3,0,13.95h-4.5Q486.74,561.31,486.74,550.79Z" transform="translate(-444.88 -440.76)" style="fill:#fff"/><path d="M517.16,550.79h6.95c2.17,7,4.22,14,6.37,21h-5.37c-.41-1.54-.84-3.06-1.28-4.59-2.11,0-4.21,0-6.32,0-.38,1.53-.78,3-1.15,4.57-1.74,0-3.48,0-5.22,0Q514.12,561.3,517.16,550.79Zm1.35,12.56c1.43-.06,2.87-.06,4.31,0-.72-3-1.44-6.06-2.21-9.08C519.92,557.31,519.16,560.32,518.51,563.36Z" transform="translate(-444.88 -440.76)" style="fill:#fff"/><path d="M532.66,550.8c1.89,0,3.77,0,5.65,0,1.29,2.2,2.38,4.51,3.63,6.74,1.26-2.24,2.38-4.56,3.73-6.76,1.81.06,3.63,0,5.44,0-1.91,3.1-3.9,6.16-5.82,9.25-.24.36.22.73.34,1.06q3.09,5.34,6.15,10.71c-2,0-3.93,0-5.89,0-1.4-2.6-2.6-5.32-4.12-7.85-1.31,2.61-2.73,5.17-4,7.81-1.94.08-3.89,0-5.83,0,2.07-3.43,4.1-6.88,6.17-10.3.16-.35.59-.76.25-1.15C536.49,557.17,534.54,554,532.66,550.8Z" transform="translate(-444.88 -440.76)" style="fill:#fff"/><path d="M466.54,440.77q47.79,0,95.58,0a7.22,7.22,0,0,1,7.09,6.79c0,5.15,0,10.31,0,15.46q0,30.91,0,61.83c-.05,5.36.1,10.73-.08,16.09q-51.29,0-102.57,0c-.06-33.37,0-66.73,0-100.1ZM503,465.84A15.76,15.76,0,0,0,496.11,478c4.31,0,8.62,0,12.93,0a9.17,9.17,0,0,1,1.24-3.59A6.7,6.7,0,0,1,516,471.6c2.07-.08,4.41.39,5.74,2.13,1.16,1.53,1,3.55,1,5.36a5,5,0,0,1-2.57,4.56c-3,1.71-6.5,1-9.75,1.22,0,3.08-.1,6.16.11,9.24,4,.1,8.54-.53,12,2.07,2.52,1.89,2.44,5.38,2.12,8.19a6.21,6.21,0,0,1-4.09,5.14,11.43,11.43,0,0,1-8-.18,7.07,7.07,0,0,1-4.09-5.72c-4.29,0-8.57,0-12.86,0a16.33,16.33,0,0,0,7.21,12.65c4.19,2.77,9.33,3.66,14.28,3.68,5.45.07,11.12-1.19,15.56-4.47,3.37-2.49,5.87-6.41,5.85-10.69-.07-2.89.4-6-1-8.64-2-4.15-6.51-6.43-10.86-7.34a15.93,15.93,0,0,0,6.44-3.36,9.22,9.22,0,0,0,3.26-6.05c.12-3.17.23-6.57-1.51-9.38-2.82-4.76-8.37-7.11-13.66-7.81C515,461.43,508.28,462.21,503,465.84Z" transform="translate(-444.88 -440.76)" style="fill:#39a5cc"/><path d="M462.86,443a40.54,40.54,0,0,1,3.68-2.14c0,33.37,0,66.73,0,100.1-3.32,2-6.61,4-9.9,6-3.93,2.36-7.84,4.76-11.79,7.08q0-50.1,0-100.21C450.9,450.25,456.85,446.58,462.86,443Z" transform="translate(-444.88 -440.76)" style="fill:#7fc5de"/><path d="M569.23,463h9.86c.07,40.06,0,80.13,0,120.19q-57.55,0-115.1,0a7.29,7.29,0,0,1-7.32-7.07c0-9.74,0-19.49,0-29.23,3.29-2,6.58-4,9.9-6q51.28-.1,102.57,0c.18-5.36,0-10.73.08-16.09Q569.23,493.94,569.23,463Zm-82.49,87.77q0,10.52,0,21h4.5c0-4.65,0-9.3,0-13.95,1.31,4.64,2.42,9.33,3.74,14q2.44,0,4.88,0c1.19-4.48,2.38-9,3.48-13.47.15,4.48,0,9,.07,13.45h5q0-10.52,0-21c-2.13,0-4.26,0-6.39,0-1.49,5.61-2.95,11.24-4.47,16.84-1.44-5.57-2.77-11.17-4.24-16.74C491.18,550.65,488.94,550.86,486.74,550.79Zm30.41,0q-3.05,10.5-6,21c1.74,0,3.48,0,5.22,0,.37-1.53.77-3,1.15-4.57,2.11,0,4.21,0,6.32,0,.44,1.53.87,3.05,1.28,4.59h5.37c-2.15-7-4.21-14-6.37-21Zm15.51,0c1.87,3.21,3.82,6.37,5.71,9.56.34.39-.09.8-.25,1.15-2.08,3.42-4.1,6.88-6.17,10.3,1.94,0,3.89.05,5.83,0,1.27-2.64,2.68-5.2,4-7.81,1.53,2.53,2.72,5.25,4.12,7.85,2,0,3.93,0,5.89,0q-3.06-5.36-6.15-10.71c-.12-.33-.58-.7-.34-1.06,1.92-3.1,3.9-6.15,5.82-9.25-1.82,0-3.63,0-5.44,0-1.35,2.19-2.47,4.51-3.73,6.76-1.25-2.23-2.34-4.54-3.63-6.74C536.43,550.8,534.55,550.78,532.66,550.8Z" transform="translate(-444.88 -440.76)" style="fill:#36687f"/><path d="M518.51,563.36c.65-3,1.42-6,2.1-9.08.77,3,1.49,6,2.21,9.08C521.38,563.3,519.94,563.3,518.51,563.36Z" transform="translate(-444.88 -440.76)" style="fill:#36687f"/></svg>